#!OML:ASF H:\Not Pregnant\Project 1\Capture day 1\Session 1\non-pregnant.ASF
:FULLY-SPECIFIED
:DEGREES
1049
root -4.83789 15.8726 35.335 -173.095 185.741 -176.983
lowerback 7.23501 -0.0872845 -4.68275
upperback -7.05584 -0.825196 -0.996925
thorax -11.652 -0.0592864 1.6891
lowerneck 11.4613 -11.5373 -30.4048
upperneck 1.60201 -21.3341 36.5096
head 6.58404 -11.8081 16.8723
rclavicle -9.56651e-015 -1.88845e-014
rhumerus -30.8835 26.618 -97.6113
rradius 111.907
rwrist -21.2973
rhand 1.45555 -0.933759
rfingers 7.12502
rthumb 26.9838 -29.0267
lclavicle -9.56651e-015 -1.88845e-014
lhumerus -39.8307 -10.8783 83.0437
lradius 69.6969
lwrist 49.9738
lhand -13.6012 -14.1841
lfingers 7.12502
lthumb 12.5136 15.4212
rfemur -58.2954 1.57591 17.8431
rtibia 84.5129
rfoot -2.56482 2.35428
rtoes -25.7861
lfemur -18.4113 2.99295 -27.5618
ltibia 26.7332
lfoot -13.0535 -14.2469
ltoes -20.3016
1050
root -4.86102 15.8711 35.44 -172.98 185.184 -176.997
lowerback 7.19173 -0.219257 -4.80244
upperback -7.04433 -1.01176 -0.963204
thorax -11.5989 -0.138217 1.8239
lowerneck 11.6652 -11.5339 -30.3952
upperneck 1.5448 -21.3769 36.5833
head 6.55858 -11.8522 16.916
rclavicle -1.2424e-014 1.55052e-014
rhumerus -31.6743 26.1699 -97.6972
rradius 110.935
rwrist -21.3639
rhand 1.413 -1.02539
rfingers 7.12502
rthumb 26.9431 -29.1246
lclavicle -1.2424e-014 1.55052e-014
lhumerus -39.7078 -10.9074 83.297
lradius 69.9819
lwrist 49.1514
lhand -13.746 -14.4052
lfingers 7.12502
lthumb 12.374 15.2086
rfemur -58.4069 1.53082 17.6457
rtibia 82.8415
rfoot -2.80007 2.41143
rtoes -25.551
lfemur -18.1166 2.89325 -27.5029
ltibia 26.7669
lfoot -13.3317 -14.5102
ltoes -19.7849
1051
root -4.88473 15.8676 35.5466 -172.855 184.613 -176.986
lowerback 7.10639 -0.352104 -4.9313
upperback -7.02992 -1.19889 -0.941722
thorax -11.516 -0.218281 1.94961
lowerneck 11.8081 -11.5558 -30.363
upperneck 1.53605 -21.4437 36.6124
head 6.55672 -11.8992 16.922
rclavicle 8.19987e-016 6.95746e-015
rhumerus -32.4633 25.6719 -97.7861
rradius 109.786
rwrist -21.405
rhand 1.33363 -1.10526
rfingers 7.12502
rthumb 26.8671 -29.2162
lclavicle 8.19987e-016 6.95746e-015
lhumerus -39.5945 -10.9017 83.5352
lradius 70.246
lwrist 48.7138
lhand -13.7789 -14.5766
lfingers 7.12502
lthumb 12.3423 15.0391
rfemur -58.4047 1.45563 17.4235
rtibia 81.098
rfoot -3.09827 2.4989
rtoes -25.3322
lfemur -17.8485 2.78678 -27.4648
ltibia 26.8372
lfoot -13.6295 -14.7708
ltoes -19.2938
1052
root -4.90892 15.8624 35.6552 -172.72 184.033 -176.967
lowerback 6.97637 -0.484577 -5.05377
upperback -7.01884 -1.38239 -0.928468
thorax -11.4092 -0.298434 2.06075
lowerneck 11.9178 -11.5914 -30.3197
upperneck 1.57097 -21.5261 36.6058
head 6.57177 -11.9484 16.9022
rclavicle 8.4235e-015 1.82882e-014
rhumerus -33.2673 25.1161 -97.8759
rradius 108.47
rwrist -21.4654
rhand 1.25338 -1.23752
rfingers 7.12502
rthumb 26.7903 -29.3602
lclavicle 8.4235e-015 1.82882e-014
lhumerus -39.501 -10.866 83.7589
lradius 70.4897
lwrist 48.7515
lhand -13.6791 -14.7047
lfingers 7.12502
lthumb 12.4385 14.9052
rfemur -58.2805 1.35789 17.1978
rtibia 79.2854
rfoot -3.45736 2.60504
rtoes -25.1811
lfemur -17.6043 2.66785 -27.4309
ltibia 26.9453
lfoot -13.9544 -15.0086
ltoes -18.8735
1053
root -4.9335 15.8555 35.7654 -172.573 183.449 -176.955
lowerback 6.80353 -0.614301 -5.15419
upperback -7.00678 -1.5565 -0.919566
thorax -11.2755 -0.37719 2.15151
lowerneck 11.9828 -11.646 -30.2619
upperneck 1.64618 -21.6278 36.5626
head 6.60561 -12.0003 16.8529
rclavicle 7.88927e-015 7.35503e-015
rhumerus -34.0688 24.4959 -97.9543
rradius 106.979
rwrist -21.5494
rhand 1.17483 -1.41559
rfingers 7.12502
rthumb 26.7152 -29.5498
lclavicle 7.88927e-015 7.35503e-015
lhumerus -39.4184 -10.8111 83.9744
lradius 70.7068
lwrist 49.2034
lhand -13.5001 -14.8045
lfingers 7.12502
lthumb 12.6111 14.7948
rfemur -58.0378 1.2521 16.988
rtibia 77.4088
rfoot -3.84604 2.71346
rtoes -25.0558
lfemur -17.3892 2.53619 -27.3819
ltibia 27.0975
lfoot -14.2932 -15.2264
ltoes -18.5117
1054
root -4.95876 15.8475 35.8778 -172.423 182.879 -176.983
lowerback 6.58801 -0.739369 -5.21335
upperback -6.98629 -1.71468 -0.901653
thorax -11.1073 -0.452642 2.2243
lowerneck 11.9941 -11.7151 -30.1868
upperneck 1.75488 -21.7385 36.4909
head 6.65499 -12.0494 16.7794
rclavicle 9.44227e-016 -1.19271e-015
rhumerus -34.8641 23.8075 -98.0195
rradius 105.321
rwrist -21.6546
rhand 1.11159 -1.64462
rfingers 7.12502
rthumb 26.6546 -29.788
lclavicle 9.44227e-016 -1.19271e-015
lhumerus -39.3512 -10.7295 84.1867
lradius 70.8803
lwrist 49.9116
lhand -13.3068 -14.916
lfingers 7.12502
lthumb 12.7974 14.6717
rfemur -57.6612 1.17686 16.8317
rtibia 75.4658
rfoot -4.23494 2.80803
rtoes -24.9342
lfemur -17.1951 2.39345 -27.2782
ltibia 27.2969
lfoot -14.6457 -15.4069
ltoes -18.2013
1055
root -4.98435 15.8381 35.9917 -172.269 182.318 -177.033
lowerback 6.33442 -0.857539 -5.24283
upperback -6.97439 -1.85733 -0.882021
thorax -10.9272 -0.523473 2.27783
lowerneck 12.0471 -11.7671 -30.1217
upperneck 1.85606 -21.8346 36.4231
head 6.69065 -12.0957 16.7181
rclavicle 5.62809e-015 2.52457e-014
rhumerus -35.6935 23.0246 -98.0803
rradius 103.508
rwrist -21.7643
rhand 1.03647 -1.93398
rfingers 7.12502
rthumb 26.5827 -30.0883
lclavicle 5.62809e-015 2.52457e-014
lhumerus -39.3371 -10.6422 84.4138
lradius 70.9883
lwrist 50.6872
lhand -13.1363 -15.0511
lfingers 7.12502
lthumb 12.9618 14.5263
rfemur -57.1638 1.11726 16.7076
rtibia 73.4678
rfoot -4.61383 2.90611
rtoes -24.817
lfemur -17.0247 2.22849 -27.143
ltibia 27.5457
lfoot -15.0294 -15.5418
ltoes -18.0411
1056
root -5.01002 15.8271 36.1074 -172.121 181.769 -177.105
lowerback 6.04807 -0.970449 -5.2474
upperback -6.96438 -1.98694 -0.85451
thorax -10.7308 -0.590347 2.32185
lowerneck 12.1279 -11.8009 -30.0738
upperneck 1.9483 -21.913 36.3706
head 6.71692 -12.1373 16.6755
rclavicle 1.72694e-014 8.34896e-015
rhumerus -36.5483 22.1564 -98.1287
rradius 101.548
rwrist -21.8392
rhand 0.911225 -2.27222
rfingers 7.12502
rthumb 26.4629 -30.4446
lclavicle 1.72694e-014 8.34896e-015
lhumerus -39.3748 -10.5433 84.6566
lradius 71.0154
lwrist 51.3593
lhand -13.0102 -15.2072
lfingers 7.12502
lthumb 13.0834 14.3624
rfemur -56.5404 1.07619 16.6199
rtibia 71.4254
rfoot -4.95871 3.03009
rtoes -24.6269
lfemur -16.8593 2.05326 -26.9753
ltibia 27.8309
lfoot -15.4398 -15.6426
ltoes -17.8928
1057
root -5.03602 15.8138 36.2243 -171.985 181.256 -177.192
lowerback 5.73949 -1.07079 -5.2438
upperback -6.95477 -2.09665 -0.821413
thorax -10.5231 -0.648543 2.36251
lowerneck 12.242 -11.8146 -30.0487
upperneck 2.02729 -21.974 36.3431
head 6.73423 -12.1753 16.658
rclavicle -1.12313e-014 1.49089e-014
rhumerus -37.4092 21.2062 -98.1593
rradius 99.4401
rwrist -21.8744
rhand 0.69238 -2.64824
rfingers 7.12502
rthumb 26.2534 -30.852
lclavicle -1.12313e-014 1.49089e-014
lhumerus -39.4606 -10.4314 84.9099
lradius 70.9487
lwrist 51.8156
lhand -12.9163 -15.3776
lfingers 7.12502
lthumb 13.1739 14.1862
rfemur -55.807 1.06864 16.5596
rtibia 69.3537
rfoot -5.25306 3.22801
rtoes -24.3212
lfemur -16.6893 1.89372 -26.7866
ltibia 28.1414
lfoot -15.8848 -15.7108
ltoes -17.7757
1058
root -5.06072 15.7982 36.3429 -171.892 180.708 -177.259
lowerback 5.45446 -1.17834 -5.2308
upperback -6.94575 -2.21739 -0.794959
thorax -10.3304 -0.712812 2.39182
lowerneck 12.4121 -11.8023 -30.0574
upperneck 2.09217 -22.0167 36.343
head 6.73975 -12.212 16.6716
rclavicle 9.34288e-015 1.92821e-014
rhumerus -38.2888 20.1827 -98.1714
rradius 97.1824
rwrist -21.8345
rhand 0.300062 -3.0313
rfingers 7.12502
rthumb 25.8777 -31.2904
lclavicle 9.34288e-015 1.92821e-014
lhumerus -39.6102 -10.3181 85.1846
lradius 70.7845
lwrist 52.0009
lhand -12.8823 -15.5475
lfingers 7.12502
lthumb 13.2067 14.0142
rfemur -54.9241 1.00095 16.5004
rtibia 67.2727
rfoot -5.53605 3.55199
rtoes -23.9534
lfemur -16.468 1.68884 -26.6119
ltibia 28.4663
lfoot -16.3582 -15.7589
ltoes -17.6532
1059
root -5.08402 15.7799 36.4627 -171.843 180.129 -177.308
lowerback 5.18957 -1.29078 -5.20568
upperback -6.93139 -2.34541 -0.776464
thorax -10.1442 -0.781897 2.40617
lowerneck 12.5966 -11.7876 -30.0741
upperneck 2.16966 -22.0614 36.3261
head 6.74506 -12.2503 16.6799
rclavicle 2.93207e-015 3.77691e-015
rhumerus -39.1649 19.0874 -98.1498
rradius 94.7751
rwrist -21.6832
rhand -0.284855 -3.38885
rfingers 7.12502
rthumb 25.3175 -31.7285
lclavicle 2.93207e-015 3.77691e-015
lhumerus -39.8099 -10.2134 85.477
lradius 70.533
lwrist 51.928
lhand -12.9139 -15.6938
lfingers 7.12502
lthumb 13.1762 13.8698
rfemur -53.9043 0.864657 16.4522
rtibia 65.1969
rfoot -5.81257 4.03436
rtoes -23.516
lfemur -16.1955 1.4419 -26.4497
ltibia 28.8019
lfoot -16.8498 -15.7995
ltoes -17.532
1060
root -5.10588 15.7581 36.5836 -171.835 179.515 -177.325
lowerback 4.94836 -1.40914 -5.18328
upperback -6.90738 -2.48412 -0.771094
thorax -9.96153 -0.856668 2.40889
lowerneck 12.7767 -11.7774 -30.0905
upperneck 2.26238 -22.1127 36.2907
head 6.75484 -12.2903 16.6773
rclavicle -1.6847e-014 -1.8487e-014
rhumerus -40.0086 17.9194 -98.0751
rradius 92.222
rwrist -21.4466
rhand -1.00843 -3.75645
rfingers 7.12502
rthumb 24.6241 -32.1925
lclavicle -1.6847e-014 -1.8487e-014
lhumerus -40.0459 -10.1021 85.7733
lradius 70.2097
lwrist 51.6879
lhand -12.9743 -15.7932
lfingers 7.12502
lthumb 13.118 13.7742
rfemur -52.7602 0.649028 16.4044
rtibia 63.1378
rfoot -6.10085 4.68719
rtoes -23.1022
lfemur -15.8783 1.14784 -26.316
ltibia 29.1526
lfoot -17.3652 -15.8329
ltoes -17.4359
1061
root -5.12594 15.7326 36.706 -171.861 178.869 -177.307
lowerback 4.70164 -1.531 -5.15972
upperback -6.8588 -2.62727 -0.780929
thorax -9.7491 -0.935722 2.39351
lowerneck 12.9305 -11.7824 -30.1144
upperneck 2.36147 -22.182 36.2505
head 6.77863 -12.3364 16.6663
rclavicle -3.6477e-014 -1.37161e-014
rhumerus -40.7824 16.6832 -97.9247
rradius 89.5208
rwrist -21.1389
rhand -1.82126 -4.16555
rfingers 7.12502
rthumb 23.8448 -32.7055
lclavicle -3.6477e-014 -1.37161e-014
lhumerus -40.2816 -9.98776 86.0621
lradius 69.8321
lwrist 51.4081
lhand -13.0264 -15.8133
lfingers 7.12502
lthumb 13.0678 13.7573
rfemur -51.5052 0.349449 16.3566
rtibia 61.0973
rfoot -6.37745 5.50759
rtoes -22.7591
lfemur -15.5332 0.810373 -26.2151
ltibia 29.5376
lfoot -17.9166 -15.8623
ltoes -17.4128
1062
root -5.14532 15.7031 36.8292 -171.897 178.23 -177.288
lowerback 4.43817 -1.64306 -5.12472
upperback -6.79988 -2.75489 -0.794754
thorax -9.5177 -1.00902 2.36361
lowerneck 13.0539 -11.8016 -30.1417
upperneck 2.47446 -22.2679 36.2037
head 6.818 -12.3873 16.6455
rclavicle -3.10601e-014 -1.80894e-014
rhumerus -41.5015 15.3713 -97.6955
rradius 86.6858
rwrist -20.7879
rhand -2.7039 -4.64679
rfingers 7.12502
rthumb 22.9981 -33.2948
lclavicle -3.10601e-014 -1.80894e-014
lhumerus -40.5275 -9.87159 86.3425
lradius 69.4107
lwrist 51.1657
lhand -13.0696 -15.7885
lfingers 7.12502
lthumb 13.0261 13.7848
rfemur -50.1774 0.0329623 16.3409
rtibia 59.0661
rfoot -6.56196 6.46272
rtoes -22.5708
lfemur -15.1998 0.452152 -26.1101
ltibia 29.9719
lfoot -18.5076 -15.8738
ltoes -17.4259
1063
root -5.16483 15.6697 36.953 -171.922 177.628 -177.275
lowerback 4.14086 -1.73519 -5.08557
upperback -6.74501 -2.85332 -0.808745
thorax -9.27391 -1.06873 2.32549
lowerneck 13.1768 -11.8248 -30.1614
upperneck 2.58415 -22.3558 36.1479
head 6.85458 -12.4383 16.6178
rclavicle 1.12313e-014 1.0138e-014
rhumerus -42.1767 13.9732 -97.3837
rradius 83.7174
rwrist -20.4218
rhand -3.65722 -5.20643
rfingers 7.12502
rthumb 22.0831 -33.9655
lclavicle 1.12313e-014 1.0138e-014
lhumerus -40.7988 -9.76458 86.6167
lradius 68.9512
lwrist 51.007
lhand -13.0864 -15.7344
lfingers 7.12502
lthumb 13.0099 13.8399
rfemur -48.8121 -0.254414 16.3612
rtibia 57.0386
rfoot -6.56402 7.52207
rtoes -22.7159
lfemur -14.9116 0.0834863 -25.992
ltibia 30.4712
lfoot -19.146 -15.8479
ltoes -17.492
